HIERARCHY
ROOT hip
{
  OFFSET 0 0 0
  CHANNELS 6 Xposition Yposition Zposition Zrotation Yrotation Xrotation
  JOINT abdomen
  {
    OFFSET 0 20.6881 -0.73152
    CHANNELS 3 Zrotation Xrotation Yrotation
    JOINT chest
    {
      OFFSET 0 11.7043 -0.48768
      CHANNELS 3 Zrotation Xrotation Yrotation
      JOINT neck
      {
        OFFSET 0 22.1894 -2.19456
        CHANNELS 3 Zrotation Xrotation Yrotation
        JOINT head
        {
          OFFSET -0.24384 7.07133 1.2192
          CHANNELS 3 Zrotation Xrotation Yrotation
          JOINT leftEye
          {
            OFFSET 4.14528 8.04674 8.04672
            CHANNELS 3 Zrotation Xrotation Yrotation
            End Site
            {
              OFFSET 1 0 0
            }
          }
          JOINT rightEye
          {
            OFFSET -3.6576 8.04674 8.04672
            CHANNELS 3 Zrotation Xrotation Yrotation
            End Site
            {
              OFFSET 1 0 0
            }
          }
        }
      }
      JOINT rCollar
      {
        OFFSET -2.68224 19.2634 -4.8768
        CHANNELS 3 Zrotation Xrotation Yrotation
        JOINT rShldr
        {
          OFFSET -8.77824 -1.95073 1.46304
          CHANNELS 3 Zrotation Xrotation Yrotation
          JOINT rForeArm
          {
            OFFSET -28.1742 -1.7115 0.48768
            CHANNELS 3 Zrotation Xrotation Yrotation
            JOINT rHand
            {
              OFFSET -22.5879 0.773209 7.07136
              CHANNELS 3 Zrotation Xrotation Yrotation
              JOINT rThumb1
              {
                OFFSET -1.2192 -0.487915 3.41376
                CHANNELS 3 Zrotation Xrotation Yrotation
                JOINT rThumb2
                {
                  OFFSET -3.37035 -0.52449 3.41376
                  CHANNELS 3 Zrotation Xrotation Yrotation
                  End Site
                  {
                    OFFSET -1.78271 -1.18214 1.43049
                  }
                }
              }
              JOINT rIndex1
              {
                OFFSET -7.75947 0.938293 5.60832
                CHANNELS 3 Zrotation Xrotation Yrotation
                JOINT rIndex2
                {
                  OFFSET -2.54057 -0.884171 1.56538
                  CHANNELS 3 Zrotation Xrotation Yrotation
                  End Site
                  {
                    OFFSET -1.62519 -0.234802 1.16502
                  }
                }
              }
              JOINT rMid1
              {
                OFFSET -8.24714 1.18213 3.41376
                CHANNELS 3 Zrotation Xrotation Yrotation
                JOINT rMid2
                {
                  OFFSET -3.10165 -0.590103 1.0647
                  CHANNELS 3 Zrotation Xrotation Yrotation
                  End Site
                  {
                    OFFSET -2.48547 -0.328903 0.83742
                  }
                }
              }
              JOINT rRing1
              {
                OFFSET -8.82822 0.546677 1.51678
                CHANNELS 3 Zrotation Xrotation Yrotation
                JOINT rRing2
                {
                  OFFSET -2.60934 -0.819778 -0.0198488
                  CHANNELS 3 Zrotation Xrotation Yrotation
                  End Site
                  {
                    OFFSET -2.33842 -0.294052 0.168128
                  }
                }
              }
              JOINT rPinky1
              {
                OFFSET -8.27202 -0.0477905 -0.4584
                CHANNELS 3 Zrotation Xrotation Yrotation
                JOINT rPinky2
                {
                  OFFSET -1.82734 -0.647385 -0.700984
                  CHANNELS 3 Zrotation Xrotation Yrotation
                  End Site
                  {
                    OFFSET -1.69225 -0.51767 -0.607171
                  }
                }
              }
            }
          }
        }
      }
      JOINT lCollar
      {
        OFFSET 2.68224 19.2634 -4.8768
        CHANNELS 3 Zrotation Xrotation Yrotation
        JOINT lShldr
        {
          OFFSET 8.77824 -1.95073 1.46304
          CHANNELS 3 Zrotation Xrotation Yrotation
          JOINT lForeArm
          {
            OFFSET 28.1742 -1.7115 0.48768
            CHANNELS 3 Zrotation Xrotation Yrotation
            JOINT lHand
            {
              OFFSET 22.5879 0.773209 7.07136
              CHANNELS 3 Zrotation Xrotation Yrotation
              JOINT lThumb1
              {
                OFFSET 1.2192 -0.487915 3.41376
                CHANNELS 3 Zrotation Xrotation Yrotation
                JOINT lThumb2
                {
                  OFFSET 3.37035 -0.52449 3.41376
                  CHANNELS 3 Zrotation Xrotation Yrotation
                  End Site
                  {
                    OFFSET 1.78271 -1.18214 1.43049
                  }
                }
              }
              JOINT lIndex1
              {
                OFFSET 7.75947 0.938293 5.60832
                CHANNELS 3 Zrotation Xrotation Yrotation
                JOINT lIndex2
                {
                  OFFSET 2.54057 -0.884171 1.56538
                  CHANNELS 3 Zrotation Xrotation Yrotation
                  End Site
                  {
                    OFFSET 1.62519 -0.234802 1.16502
                  }
                }
              }
              JOINT lMid1
              {
                OFFSET 8.24714 1.18213 3.41376
                CHANNELS 3 Zrotation Xrotation Yrotation
                JOINT lMid2
                {
                  OFFSET 3.10165 -0.590103 1.0647
                  CHANNELS 3 Zrotation Xrotation Yrotation
                  End Site
                  {
                    OFFSET 2.48547 -0.328903 0.83742
                  }
                }
              }
              JOINT lRing1
              {
                OFFSET 8.82822 0.546677 1.51678
                CHANNELS 3 Zrotation Xrotation Yrotation
                JOINT lRing2
                {
                  OFFSET 2.60934 -0.819778 -0.0198488
                  CHANNELS 3 Zrotation Xrotation Yrotation
                  End Site
                  {
                    OFFSET 2.33842 -0.294052 0.168128
                  }
                }
              }
              JOINT lPinky1
              {
                OFFSET 8.27202 -0.0477905 -0.4584
                CHANNELS 3 Zrotation Xrotation Yrotation
                JOINT lPinky2
                {
                  OFFSET 1.82734 -0.647385 -0.700984
                  CHANNELS 3 Zrotation Xrotation Yrotation
                  End Site
                  {
                    OFFSET 1.69225 -0.51767 -0.607171
                  }
                }
              }
            }
          }
        }
      }
    }
  }
  JOINT rButtock
  {
    OFFSET -8.77824 4.35084 1.2192
    CHANNELS 3 Zrotation Xrotation Yrotation
    JOINT rThigh
    {
      OFFSET 0 -1.70687 -2.19456
      CHANNELS 3 Zrotation Xrotation Yrotation
      JOINT rShin
      {
        OFFSET 0 -36.8199 0.73152
        CHANNELS 3 Zrotation Xrotation Yrotation
        JOINT rFoot
        {
          OFFSET 0.73152 -45.1104 -5.12064
          CHANNELS 3 Zrotation Xrotation Yrotation
          End Site
          {
            OFFSET -1.1221 -3.69964 12.103
          }
        }
      }
    }
  }
  JOINT lButtock
  {
    OFFSET 8.77824 4.35084 1.2192
    CHANNELS 3 Zrotation Xrotation Yrotation
    JOINT lThigh
    {
      OFFSET 0 -1.70687 -2.19456
      CHANNELS 3 Zrotation Xrotation Yrotation
      JOINT lShin
      {
        OFFSET 0 -36.8199 0.73152
        CHANNELS 3 Zrotation Xrotation Yrotation
        JOINT lFoot
        {
          OFFSET -0.73152 -45.1104 -5.12064
          CHANNELS 3 Zrotation Xrotation Yrotation
          End Site
          {
            OFFSET 1.1221 -3.69964 12.103
          }
        }
      }
    }
  }
}
MOTION
Frames:	4
Frame Time:	0.00833333
-181.015 85.1237 14.0821 0.0 0.0 0.0 0.435974 -0.0238512 0.0128202 0.121276 -0.0396248 0.0210494 -3.81788e-15 7.95139e-16 2.48481e-17 -1.15854e-14 9.54166e-15 5.59082e-17 -0.0 0.0 0.0 -0.0 0.0 0.0 -1.84129e-15 -1.99173e-16 1.49089e-16 -4.09213e-14 -4.01918e-15 7.95139e-16 -7.34012e-13 6.34123e-14 9.54166e-15 -8.12612e-12 -9.7084e-13 1.90833e-14 -1.92246e-11 -1.97105e-12 7.31528e-14 -3.32137e-11 -3.40319e-12 1.24837e-13 -1.92233e-11 -1.97274e-12 6.67917e-14 7.73091 5.47488 0.417314 -1.92265e-11 -1.97204e-12 7.63333e-14 2.90554 0.965183 0.102902 -1.92224e-11 -1.97125e-12 6.75868e-14 10.2786 0.731801 0.0259123 -1.92346e-11 -1.96479e-12 6.36111e-14 2.22167 -0.733487 -0.20892 -2.13453e-15 -2.00338e-16 -1.49089e-16 -4.14003e-14 -4.0316e-15 -9.93923e-16 -6.90826e-13 -3.60794e-13 1.90833e-14 -8.17403e-12 -5.3821e-13 6.36111e-15 -1.92292e-11 -1.95544e-12 6.36111e-14 -3.31974e-11 -3.38093e-12 1.145e-13 -1.92312e-11 -1.95564e-12 7.63333e-14 -7.73091 5.47488 -0.417314 -1.92281e-11 -1.95614e-12 6.99722e-14 -2.90554 0.965183 -0.102902 -1.9229e-11 -1.95624e-12 6.83819e-14 -10.2786 0.731801 -0.0259123 -1.92227e-11 -1.95048e-12 6.36111e-14 -2.22167 -0.733487 0.20892 -2.03217e-16 0.0 -3.88251e-19 0.651906 -4.7111 -0.0694738 -0.000843513 2.99808 0.00382395 -0.326297 1.72324 0.069777 2.03217e-16 0.0 3.88251e-19 0.0330654 -2.68025 0.0231618 0.00579552 -0.679765 0.0505468 0.296236 3.37021 -0.0966908
-173.604 83.1637 -0.514012 177.468 71.096 -173.482 -0.931859 -1.19937 0.82281 0.777567 -4.13151 0.417257 -1.05119 -1.67454 0.216196 0.742106 10.0472 1.88791 -0.0 0.0 0.0 -0.0 0.0 0.0 -5.81244e-16 6.10218e-14 8.26583e-14 18.6194 13.203 -2.52307 -5.40212 -2.74724 8.09555 0.0185009 -3.01792 -0.422018 3.74905e-10 1.63565e-10 -4.24264e-10 6.49578e-10 2.82351e-10 -7.31663e-10 3.74907e-10 1.63563e-10 -4.24269e-10 7.73091 5.47488 0.417314 3.74904e-10 1.63564e-10 -4.24263e-10 2.90554 0.965183 0.102902 3.74908e-10 1.63565e-10 -4.2427e-10 10.2786 0.731801 0.0259123 3.74895e-10 1.6357e-10 -4.24272e-10 2.22167 -0.733487 -0.20892 -8.33973e-16 6.10208e-14 8.23861e-14 -21.4162 1.19364 4.6267 4.89697 -2.37881 -7.47438 -0.00932421 2.14221 -0.300308 1.79248e-10 9.13767e-10 8.13155e-10 3.1561e-10 1.58009e-09 1.40461e-09 1.79245e-10 9.13767e-10 8.13165e-10 -7.73091 5.47488 -0.417314 1.79249e-10 9.13767e-10 8.13161e-10 -2.90554 0.965183 -0.102902 1.79244e-10 9.13767e-10 8.13157e-10 -10.2786 0.731801 -0.0259123 1.79253e-10 9.13772e-10 8.13149e-10 -2.22167 -0.733487 0.20892 -2.03217e-16 0.0 -3.88251e-19 -1.90814 -6.97322 4.78927 0.0207231 5.48115 0.149627 -1.51189 -6.68147 -7.74775 2.03217e-16 0.0 3.88251e-19 -5.10884 -2.64054 -10.1846 0.00774459 -0.51905 0.0898835 1.22588 -6.37251 10.3872
-173.557 83.1809 -0.50104 177.543 71.2184 -173.448 -2.34023 -2.45103 1.67747 1.54207 -8.4561 0.843815 -2.13927 -3.44181 0.448453 0.738126 20.6271 4.09715 -0.0 0.0 0.0 -0.0 0.0 0.0 1.99586e-15 1.27806e-13 1.85196e-13 39.7077 27.0743 -5.67999 -10.2806 -5.4713 16.7174 -0.010545 -6.20914 -0.872255 8.24329e-10 3.4155e-10 -9.05075e-10 1.42828e-09 5.89556e-10 -1.56091e-09 8.24332e-10 3.41548e-10 -9.05079e-10 7.73091 5.47488 0.417314 8.24329e-10 3.41549e-10 -9.05077e-10 2.90554 0.965183 0.102902 8.24333e-10 3.41549e-10 -9.05082e-10 10.2786 0.731801 0.0259123 8.2432e-10 3.41553e-10 -9.05081e-10 2.22167 -0.733487 -0.20892 1.78429e-15 1.27805e-13 1.8495e-13 -44.2694 2.43496 9.52822 9.40698 -4.76017 -15.4199 0.0052996 4.40562 -0.619033 3.69816e-10 2.04661e-09 1.76278e-09 6.51692e-10 3.53969e-09 3.04537e-09 3.69814e-10 2.04661e-09 1.76278e-09 -7.73091 5.47488 -0.417314 3.69817e-10 2.04661e-09 1.76278e-09 -2.90554 0.965183 -0.102902 3.6981e-10 2.04661e-09 1.76277e-09 -10.2786 0.731801 -0.0259123 3.69821e-10 2.04662e-09 1.76276e-09 -2.22167 -0.733487 0.20892 -2.03217e-16 0.0 -3.88251e-19 -4.19117 -9.26857 10.0052 0.0295059 8.08246 0.303824 -5.29056 -15.0098 -16.5088 2.03217e-16 0.0 3.88251e-19 -10.5363 -2.48714 -21.0891 0.00966692 -0.364412 0.132245 6.17888 -15.778 22.2959
-173.543 83.1843 -0.558303 177.059 71.3409 -173.942 -3.56769 -3.54755 2.44694 2.26336 -12.3128 1.23483 -3.11554 -5.02334 0.650811 -0.0169887 30.0003 6.44301 -0.0 0.0 0.0 -0.0 0.0 0.0 1.93884e-15 1.83464e-13 2.47677e-13 60.195 39.2552 -9.53427 -13.9379 -7.58495 24.4867 -0.0792906 -9.0518 -1.28025 1.16316e-09 4.94637e-10 -1.27294e-09 2.01516e-09 8.5386e-10 -2.19524e-09 1.16317e-09 4.94636e-10 -1.27294e-09 7.73091 5.47488 0.417314 1.16316e-09 4.94636e-10 -1.27294e-09 2.90554 0.965183 0.102902 1.16317e-09 4.94636e-10 -1.27295e-09 10.2786 0.731801 0.0259123 1.16316e-09 4.94639e-10 -1.27294e-09 2.22167 -0.733487 -0.20892 1.76714e-15 1.83463e-13 2.47457e-13 -64.8215 3.48765 13.9034 12.8713 -6.6517 -22.5639 0.0397555 6.42591 -0.905986 5.76201e-10 2.74521e-09 2.43934e-09 1.01323e-09 4.74703e-09 4.21361e-09 5.76199e-10 2.74521e-09 2.43934e-09 -7.73091 5.47488 -0.417314 5.76202e-10 2.74521e-09 2.43934e-09 -2.90554 0.965183 -0.102902 5.76191e-10 2.74521e-09 2.43933e-09 -10.2786 0.731801 -0.0259123 5.76205e-10 2.74522e-09 2.43932e-09 -2.22167 -0.733487 0.20892 -2.03217e-16 0.0 -3.88251e-19 -5.87343 -11.2018 14.6856 0.0253517 10.447 0.446596 -10.975 -21.6536 -25.1042 2.03217e-16 0.0 3.88251e-19 -15.3355 -2.31404 -30.5949 0.0109807 -0.197619 0.168554 13.8685 -22.1762 33.9703
